<svg width="200" height="200" viewBox="0 0 200 200" fill="none" xmlns="http://www.w3.org/2000/svg">
<path d="M154.199 72.8828C156.024 76.3148 160.285 77.6169 163.717 75.7929C167.149 73.9669 168.454 69.7064 166.628 66.2724C164.805 62.8404 160.541 61.5363 157.109 63.3623C153.675 65.1873 152.374 69.4498 154.199 72.8828ZM182.099 64.2207L178.595 101.532C178.541 101.895 178.474 102.243 178.39 102.577C178.205 103.315 177.946 103.981 177.624 104.577C176.839 106.034 175.689 107.075 174.362 107.729L79.7776 158.022C75.9226 160.075 70.7346 158.488 68.6846 154.634L38.3166 97.5185C36.2686 93.6645 37.8536 88.4757 41.7086 86.4267L135.354 36.6338C137.517 34.9368 140.531 34.3283 143.851 35.9443L176.658 53.9521C178.972 55.2351 180.555 55.92 181.563 57.916C182.661 59.877 182.288 61.4767 182.099 64.2207Z" fill="#00DBDB"/>
<path d="M17.5716 78.6544L17.7256 78.382C18.4326 77.093 19.9406 76.3331 21.0496 75.7531L74.6646 48.4923C75.8786 47.8573 77.0386 47.3227 78.4806 47.3517C79.9206 47.3227 81.1856 47.9313 82.2946 48.4923L135.863 75.7384C137.733 76.7854 138.674 77.1901 139.361 78.6281C139.861 79.5561 139.879 80.4843 139.879 81.5373L139.846 144.611C140.147 146.015 139.866 147.508 138.797 148.768C138.108 149.678 137.13 150.33 136.028 150.723L82.4956 177.913C81.3956 178.72 80.0116 179.215 78.4796 179.176V108.961L17.5676 78.6535L17.5716 78.6544Z" fill="#4157D8"/>
<path d="M17.5716 78.6543L78.4816 108.962V179.177C76.9496 179.216 75.5626 178.721 74.4636 177.914L20.9316 150.724C19.8306 150.331 18.8526 149.679 18.1626 148.767C17.0956 147.509 16.8136 146.016 17.1116 144.612L17.0796 81.6533C16.9206 80.6483 17.0596 79.6093 17.5716 78.6543Z" fill="url(#paint0_linear_2866_951)"/>
<path d="M139.392 78.6543L78.4816 108.962V179.177C80.0126 179.216 81.3996 178.721 82.4996 177.914L136.033 150.724C137.134 150.331 138.111 149.679 138.801 148.767C139.867 147.509 140.149 146.016 139.85 144.612L139.881 81.6533C139.88 80.5133 139.903 79.6093 139.392 78.6543Z" fill="#8C63CF"/>
<path d="M78.4816 130.574V179.177C76.9496 179.216 75.5626 178.721 74.4636 177.914L20.9316 150.724C19.8306 150.331 18.8526 149.679 18.1626 148.767C17.0956 147.509 16.8136 146.016 17.1116 144.612L17.1066 134.888C34.9676 132.151 55.9856 130.574 78.4816 130.574Z" fill="url(#paint1_linear_2866_951)"/>
<path d="M78.4816 130.574V179.177C80.0126 179.216 81.3996 178.721 82.4976 177.914L136.033 150.724C137.134 150.331 138.109 149.679 138.801 148.767C139.867 147.509 140.149 146.016 139.848 144.612L139.854 134.888C121.995 132.151 100.977 130.574 78.4816 130.574Z" fill="url(#paint2_linear_2866_951)"/>
<path d="M139.938 126.08L79.8596 158.023C79.4406 158.248 79.0056 158.427 78.5616 158.566V108.961L38.8416 89.1963C39.5666 88.0513 40.5636 87.0798 41.7896 86.4268L98.0996 56.4873L135.947 75.7373C137.816 76.7843 138.757 77.189 139.444 78.627C139.946 79.555 139.963 80.4831 139.963 81.5361L139.938 126.08Z" fill="url(#paint3_linear_2866_951)"/>
<path d="M139.962 81.6523L139.938 126.121L79.9386 158.023C79.5196 158.248 79.0846 158.427 78.6416 158.566L78.6406 108.962L139.472 78.6543C139.984 79.6093 139.962 80.5133 139.962 81.6523Z" fill="url(#paint4_linear_2866_951)"/>
<path d="M23.4796 119.934C23.4796 111.336 27.0945 104.846 31.5555 105.438C36.0195 106.032 39.6366 113.482 39.6366 122.08C39.6366 130.678 36.0195 137.167 31.5555 136.577C27.0945 135.983 23.4796 128.534 23.4796 119.934Z" fill="#00E6E5"/>
<path d="M51.6396 133.289C51.6396 124.502 55.4176 117.38 60.0736 117.38C64.7326 117.38 68.5106 124.502 68.5106 133.289C68.5106 142.074 64.7346 149.197 60.0736 149.197C55.4186 149.197 51.6396 142.074 51.6396 133.289Z" fill="#00E6E5"/>
<path d="M28.5186 123.366C28.5186 119.352 30.1746 116.319 32.2186 116.591C34.2606 116.862 35.9186 120.335 35.9186 124.349C35.9186 128.365 34.2606 131.398 32.2186 131.126C30.1746 130.854 28.5186 127.379 28.5186 123.366Z" fill="#1350C8"/>
<path d="M56.9056 136.111C56.9056 132.009 58.6336 128.684 60.7686 128.684C62.9006 128.684 64.6286 132.009 64.6286 136.111C64.6286 140.213 62.8996 143.539 60.7686 143.539C58.6326 143.539 56.9056 140.212 56.9056 136.111Z" fill="#1350C8"/>
<path d="M34.4786 112.879C34.4786 111.576 34.9966 110.588 35.6326 110.672C36.2716 110.758 36.7856 111.881 36.7856 113.184C36.7856 114.487 36.2706 115.473 35.6326 115.391C34.9966 115.305 34.4786 114.182 34.4786 112.879Z" fill="#4DFFFF"/>
<path d="M63.3896 125.547C63.3896 124.215 63.9286 123.137 64.5936 123.137C65.2586 123.137 65.7976 124.215 65.7976 125.547C65.7976 126.877 65.2586 127.954 64.5936 127.954C63.9286 127.954 63.3896 126.877 63.3896 125.547Z" fill="#4DFFFF"/>
<path d="M102.5 136.604C102.889 135.918 103.53 135.584 103.934 135.86L106.663 137.708C107.067 137.983 107.081 138.76 106.692 139.449L104.608 143.143L106.784 144.617C107.187 144.892 107.202 145.671 106.813 146.358L104.201 150.988C103.811 151.677 103.17 152.009 102.766 151.736L100.59 150.258L98.5046 153.952C98.1166 154.64 97.4746 154.973 97.0676 154.7L94.3406 152.853C93.9386 152.578 93.9236 151.797 94.3106 151.11L96.3976 147.416L94.2196 145.941C93.8176 145.666 93.8026 144.887 94.1916 144.202L96.8046 139.569C97.1936 138.881 97.8336 138.548 98.2376 138.821L100.415 140.299L102.5 136.604ZM124.835 105.994C125.396 105.703 125.859 106.017 125.871 106.697L125.953 111.279C125.961 111.959 125.518 112.746 124.957 113.037L113.127 119.199C112.566 119.49 112.104 119.179 112.091 118.499L112.011 113.914C111.998 113.234 112.444 112.449 113.005 112.156L124.835 105.994ZM125.324 134.018C125.885 133.729 126.347 134.043 126.36 134.721L126.404 137.313C126.417 137.995 125.972 138.783 125.413 139.072L114.17 144.93C113.61 145.217 113.147 144.905 113.135 144.225L113.09 141.633C113.078 140.953 113.522 140.164 114.082 139.875L125.324 134.018ZM125.179 125.662C125.738 125.371 126.2 125.685 126.212 126.363L126.258 128.958C126.27 129.64 125.823 130.425 125.266 130.718L114.024 136.571C113.462 136.862 113 136.55 112.988 135.868L112.943 133.275C112.931 132.599 113.377 131.81 113.936 131.517L125.179 125.662ZM97.0736 116.764C97.0616 116.084 97.5086 115.297 98.0676 115.004L101.845 113.036C102.404 112.745 102.867 113.059 102.88 113.737L102.943 117.394L105.956 115.825C106.517 115.532 106.98 115.849 106.991 116.527L107.071 121.11C107.085 121.79 106.639 122.577 106.079 122.868L103.065 124.439L103.13 128.093C103.14 128.775 102.695 129.56 102.137 129.853L98.3596 131.819C97.7996 132.112 97.3366 131.796 97.3246 131.116L97.2586 127.463L94.2456 129.03C93.6876 129.321 93.2246 129.007 93.2136 128.327L93.1316 123.745C93.1196 123.065 93.5656 122.278 94.1226 121.987L97.1376 120.42L97.0736 116.764Z" fill="#00CCCC"/>
<path d="M73.1596 73.7578V37.4893C70.4966 35.9693 68.7016 33.1043 68.7016 29.8193C68.7016 24.9483 72.6496 21 77.5226 21C82.3956 21 86.3446 24.9483 86.3446 29.8193C86.3446 33.1553 84.4916 36.0596 81.7636 37.5576V73.7568C81.7636 79.4948 73.1596 79.4948 73.1596 73.7578Z" fill="url(#paint5_linear_2866_951)"/>
<defs>
<linearGradient id="paint0_linear_2866_951" x1="12.8605" y1="91.8944" x2="52.7548" y2="133.512" gradientUnits="userSpaceOnUse">
<stop stop-color="#2851D4"/>
<stop offset="1" stop-color="#03A4E6"/>
</linearGradient>
<linearGradient id="paint1_linear_2866_951" x1="18.55" y1="158.402" x2="78.8351" y2="154.315" gradientUnits="userSpaceOnUse">
<stop stop-color="#1B2BBB"/>
<stop offset="0.9677" stop-color="#068FDE"/>
<stop offset="1" stop-color="#00ACDC"/>
</linearGradient>
<linearGradient id="paint2_linear_2866_951" x1="75.1608" y1="156.214" x2="147.248" y2="131.756" gradientUnits="userSpaceOnUse">
<stop stop-color="#2C3CC9"/>
<stop offset="1" stop-color="#8360CF"/>
</linearGradient>
<linearGradient id="paint3_linear_2866_951" x1="60.2379" y1="117.129" x2="131.721" y2="92.6991" gradientUnits="userSpaceOnUse">
<stop stop-color="#1D54B8"/>
<stop offset="1" stop-color="#03B8E6"/>
</linearGradient>
<linearGradient id="paint4_linear_2866_951" x1="140.162" y1="119.07" x2="78.384" y2="118.155" gradientUnits="userSpaceOnUse">
<stop stop-color="#8C63CF"/>
<stop offset="1" stop-color="#6347D3"/>
</linearGradient>
<linearGradient id="paint5_linear_2866_951" x1="75.4499" y1="79.9094" x2="77.6933" y2="25.7124" gradientUnits="userSpaceOnUse">
<stop stop-color="#3FDDDD"/>
<stop offset="1" stop-color="#2833E0"/>
</linearGradient>
</defs>
</svg>
